<svg width="100" height="100" version="1.0" viewBox="0 0 1050 952" xmlns="http://www.w3.org/2000/svg">
	<g transform="matrix(1.0608 0 0 1.097 -22.697 -96.476)">
		<circle transform="matrix(-1.0002 -.51969 .53746 -.96726 563.21 1187.4)" cx="323.32" cy="514.41" r="433.77" fill="#fff" stroke="#000" stroke-width="4.1475"/>
		<path transform="matrix(1.134 .056927 .058868 -1.0966 119.37 1067.5)" d="m-84.833 367.58a433.77 433.77 0 0 1 338.9 -281.36 433.77 433.77 0 0 1 410.31 160.19l-341.06 268.01z"/>
		<path d="m523.41 488.52c2.7191-12.97 3.5211-26.387 5.4456-39.603 1.855-11.097 1.7388-22.558 1.8631-33.864 0.40311-41.258 0.14557-82.313 0.67277-123.56-0.54249-10.498 0.736-21.083-0.30288-31.606-1.9313-14.661-3.2767-29.439-5.3321-44.106-1.4194-10.625-11.224-42.324-11.505-43.239-3.8155 12.801-6.0902 27.079-9.6641 40.013-2.1995 8.311-2.8969 15.678-4.4759 24.021-0.75658 9.2277-2.8851 18.227-3.1452 27.48-0.10735 38.144-0.10209 76.361-0.58172 114.49 0.37341 20.358-0.59118 40.718-0.10028 61.202 1.4164 12.709 3.2032 34.631 3.875 47.302z"/>
		<path d="m533.8 528.01c-9.1252-16.764-20.152-32.907-30.118-49.486-8.1793-14.062-17.601-28.411-27.328-41.685-35.535-48.411-72.046-95.155-107.48-143.63-9.5509-11.933-17.74-25.054-27.705-36.721-14.265-15.966-28.168-32.417-42.536-48.317-10.353-11.559-22.434-17.415-31.999-25.131 5.3953 17.516 0.71246 9.3777 12.49 33.988 5.31 11.096 11.338 20.032 17.342 30.715 7.4219 11.225 13.563 23.001 21.398 33.96 33.063 44.599 66.278 89.217 99.03 134.02 17.986 23.546 34.918 47.893 53.106 71.516 12.162 13.994 32.623 38.524 44.164 52.917z"/>
		<circle transform="matrix(1.4602 0 0 1.4121 -252.77 -206.45)" cx="523.4" cy="516.02" r="32.012"/>
		<path d="m318.34 622.95c8.8235-3.4851 18.393-4.3263 27.837-5.4079-5.5923 5.7684-12.303 10.455-17.523 16.464-15.783 16.344-26.967 37.134-30.447 59.367-0.24855 4.5667-0.99419 9.0132-1.6156 13.58-0.24855 7.2105 0.37282 14.421 1.6156 21.511 2.1126 8.2921 3.4797 16.704 7.4564 24.396 4.971 12.739 13.422 24.035 23.115 33.89 8.8234 8.6526 18.02 16.945 25.725 26.559-27.837 1.2018-55.55-10.335-75.31-28.962-6.7108-7.6912-13.546-15.503-18.02-24.636-7.5807-15.262-11.682-32.327-10.315-49.272 1.4913-16.704 6.338-33.409 16.031-47.469 11.806-18.507 30.696-32.207 51.449-40.018z" fill="#fff" stroke="#fff" stroke-width=".11457"/>
		<g transform="matrix(.71486 0 0 .69129 943.95 289.98)" fill="#fff">
			<path transform="matrix(.16185 -.12192 .12192 .16185 -649.84 462.91)" d="m-377.09 515.15-81.523 67.773 34.048 92.36-89.648-56.59-77.318 60.922 26.118-102.75-81.833-54.708 105.79-6.9111 26.743-94.733 39.264 98.476z"/>
			<path transform="matrix(.10084 -.10889 .10889 .10084 -444.46 488.07)" d="m-377.09 515.15-81.523 67.773 34.048 92.36-89.648-56.59-77.318 60.922 26.118-102.75-81.833-54.708 105.79-6.9111 26.743-94.733 39.264 98.476z"/>
			<path transform="matrix(.19515 -.054574 .054574 .19515 -484.52 679.67)" d="m-377.09 515.15-81.523 67.773 34.048 92.36-89.648-56.59-77.318 60.922 26.118-102.75-81.833-54.708 105.79-6.9111 26.743-94.733 39.264 98.476z"/>
			<path transform="matrix(.19515 -.054574 .054574 .19515 -463.37 355.53)" d="m-377.09 515.15-81.523 67.773 34.048 92.36-89.648-56.59-77.318 60.922 26.118-102.75-81.833-54.708 105.79-6.9111 26.743-94.733 39.264 98.476z"/>
			<path transform="matrix(.068647 -.074128 .074128 .068647 -501.14 604.3)" d="m-377.09 515.15-81.523 67.773 34.048 92.36-89.648-56.59-77.318 60.922 26.118-102.75-81.833-54.708 105.79-6.9111 26.743-94.733 39.264 98.476z"/>
		</g>
		<path d="m514.67 918.3v81.098" fill="none" stroke="#fff" stroke-width="3.2079"/>
		<path d="m926.93 523.94h81.147" fill="none" stroke="#000" stroke-width="3.2079"/>
		<path d="m883.7 690.27 77.678 35.426" fill="none" stroke="#000" stroke-width="3.2079"/>
		<path d="m683.71 146.62 31.39-59.175" fill="none" stroke="#000" stroke-width="3.3517"/>
		<path d="m514.67 47.3v64.121" fill="none" stroke="#000" stroke-width="3.2079"/>
		<path d="m22.899 523.94 71.16 0.46196" fill="none" stroke="#000" stroke-width="3.2079"/>
		<path d="m260.3 930.39 35.069-70.582" fill="none" stroke="#fff" stroke-width="3.2079"/>
		<path d="m133 344.23-59.189-27.65" fill="none" stroke="#000" stroke-width="3.2079"/>
		<path d="m929.84 264.81-64.288 38.316" fill="none" stroke="#000" stroke-width="3.2079"/>
		<path d="m268.79 185.94-37.484-52.139" fill="none" stroke="#000" stroke-width="3.2079"/>
		<path d="m96.266 763.71 62.849-37.013" fill="none" stroke="#fff" stroke-width="3.2079"/>
		<path d="m745.52 844.81 48.767 67.042" fill="none" stroke="#fff" stroke-width="3.2079"/>
	</g>
</svg>
